<?xml version="1.0" encoding="utf-8"?>
<!-- Generator: Adobe Illustrator 24.0.1, SVG Export Plug-In . SVG Version: 6.00 Build 0)  -->
<svg version="1.1" xmlns="http://www.w3.org/2000/svg" xmlns:xlink="http://www.w3.org/1999/xlink" x="0px" y="0px"
	 viewBox="0 0 181.82 48.94" style="enable-background:new 0 0 181.82 48.94;" xml:space="preserve">
<style type="text/css">
	.st0{fill:#4D5858;}
</style>
<g id="Logo">
</g>
<g id="Hilfslinien">
	<path class="st0" d="M20.68,27.28h-1.1V15.03c0-2.36-2.75-3.95-3.84-4.28l-0.95,1.51c0.55,0.2,2.53,0.91,2.53,2.72v10.67
		c-2.06-1.46-3.54-3.25-3.54-5.73v-9.87h6.89h6.89v9.87c0,2.49-1.48,4.27-3.54,5.73V14.98c0-1.82,1.98-2.52,2.53-2.72l-0.95-1.51
		c-1.08,0.33-3.83,1.92-3.83,4.28v12.24H20.68z"/>
	<polygon class="st0" points="39.7,17.12 39.71,31.71 42.35,31.71 42.32,21.23 48.61,31.78 51.67,31.78 51.67,17.22 49.06,17.22 
		49.03,27.76 42.62,17.12 	"/>
	<polygon class="st0" points="32.38,17.22 32.36,31.71 35.17,31.71 35.16,17.22 	"/>
	<path class="st0" d="M62.31,17.23c0.67,0.19,1.31,0.47,1.93,0.82l0.07,0.04l-0.04,0.07l-1.03,2.01l-0.04,0.08l-0.07-0.05
		c-0.36-0.25-0.84-0.51-1.34-0.7c-0.4-0.15-0.8-0.26-1.15-0.26c-0.69,0-1.23,0.21-1.6,0.54c-0.4,0.36-0.62,0.87-0.62,1.43h0
		c0.01,1.17,1.09,1.63,2.31,2.15c1.66,0.7,3.57,1.52,3.57,4.32h0v0.03v0c-0.01,1.17-0.49,2.22-1.34,2.97
		c-0.84,0.75-2.04,1.21-3.48,1.21h-0.05c-0.87-0.01-1.72-0.19-2.5-0.45c-0.78-0.26-1.49-0.61-2.12-0.96l-0.07-0.04l0.04-0.07
		l1.18-2.01l0.04-0.07l0.07,0.04c0.11,0.06,0.23,0.12,0.35,0.19c0.83,0.46,1.92,1.07,2.8,1.07c0.62,0,1.23-0.17,1.65-0.52
		c0.37-0.3,0.61-0.74,0.61-1.31c0-1.18-1.14-1.68-2.41-2.25c-1.68-0.75-3.59-1.6-3.59-4.2c0-1.25,0.51-2.35,1.38-3.14
		c0.85-0.77,2.05-1.24,3.44-1.24C60.99,16.96,61.66,17.05,62.31,17.23"/>
	<polygon class="st0" points="80.62,17.22 80.61,31.71 89.03,31.71 89.03,29.27 83.42,29.27 83.38,17.22 	"/>
	<polygon class="st0" points="68.18,17.22 68.15,31.71 76,31.71 76,29.27 70.91,29.27 70.93,25.5 75.92,25.5 75.92,23.18 
		70.88,23.18 70.89,19.66 76,19.66 76,17.22 	"/>
	<path class="st0" d="M168.09,31.65v-1.49h-5.76l0.04-5h5.45v-1.49h-5.47l0.04-4.87H168V17.3h-7.38l-0.01,14.35H168.09z
		 M150.32,31.67l0.02-6.04h2.03c2.34,0,5.05-1.09,5.05-4.25c0-2.71-1.83-4.08-4.51-4.08h-4.29l-0.02,14.37H150.32z M150.36,18.53
		h2.13c2.3,0,3.16,1.34,3.16,2.85c0,2.05-1.58,2.89-3.08,2.89h-2.26L150.36,18.53z M138.45,31.67l0-6.04h2.03
		c2.34,0,5.05-1.09,5.05-4.25c0-2.71-1.83-4.08-4.52-4.08h-4.29l-0.01,14.37H138.45z M138.48,18.53h2.13c2.3,0,3.16,1.34,3.16,2.85
		c0,2.05-1.58,2.89-3.08,2.89h-2.26L138.48,18.53z M130.52,17.3l-0.06,8.74c-0.02,3.24-1.76,4.27-3.86,4.27
		c-2.5,0-3.88-1.19-3.88-3.78c0-1.31,0.02-2.67,0.04-4l0.04-5.23h-1.77L121,22.23c-0.02,1.44-0.04,2.75-0.04,3.88
		c0,4.31,2.44,5.69,5.52,5.69c2.77,0,5.68-1.09,5.75-5.65l0.06-8.85H130.52z M109.79,18.53h2.11c2.3,0,3.16,1.34,3.16,2.85
		c0,2.07-1.81,2.69-3.55,2.69h-1.77L109.79,18.53z M109.78,31.67l0-6.24h1.13c1.35,0,1.76,0.82,2.65,1.95l3.16,4.29h2.24l-3.34-4.46
		c-0.6-0.74-1.4-2.01-2.34-2.2v-0.04c1.99-0.27,3.57-1.62,3.57-3.94c0-2.36-1.83-3.73-4.52-3.73h-4.29v14.37H109.78z M101.98,24.22
		l-0.08,5.5c-0.78,0.35-1.87,0.6-2.85,0.6c-3.3,0-5.64-2.63-5.64-5.91s2.34-5.91,5.64-5.91c1.44,0,2.79,0.39,3.72,0.92l0.68-1.4
		c-1.33-0.66-2.89-1-4.39-1c-4.21,0-7.53,3.04-7.53,7.39c0,4.64,3.32,7.39,7.53,7.39c1.29,0,3-0.29,4.62-1.05l0.08-6.53H101.98z"/>
</g>
</svg>
